<svg width="69" height="72" viewBox="0 0 69 72" fill="none" xmlns="http://www.w3.org/2000/svg">
<path d="M50.2481 28.7503C50.2694 28.75 50.2909 28.75 50.3125 28.75C57.4577 28.75 63.25 34.5423 63.25 41.6875C63.25 48.8327 57.4577 54.625 50.3125 54.625H20.125C12.1859 54.625 5.75 48.189 5.75 40.25C5.75 32.7759 11.4539 26.6342 18.7462 25.9403M50.2481 28.7503C50.2907 28.2767 50.3125 27.7971 50.3125 27.3125C50.3125 18.5795 43.2331 11.5 34.5 11.5C26.2293 11.5 19.4417 17.8498 18.7462 25.9403M50.2481 28.7503C49.954 32.0117 48.6697 34.9876 46.698 37.375M18.7462 25.9403C19.2 25.8971 19.6599 25.875 20.125 25.875C23.3617 25.875 26.3486 26.9448 28.7514 28.75" stroke="#141B34" stroke-width="1.5" stroke-linecap="round" stroke-linejoin="round"/>
<rect width="31" height="31" transform="translate(19 39)" fill="#EAEDF3"/>
<path d="M49.0832 54.5001C49.0832 62.5542 42.5539 69.0834 34.4998 69.0834C26.4457 69.0834 19.9165 62.5542 19.9165 54.5001C19.9165 46.4459 26.4457 39.9167 34.4998 39.9167C42.5539 39.9167 49.0832 46.4459 49.0832 54.5001Z" stroke="#141B34" stroke-width="1.5" stroke-linecap="round" stroke-linejoin="round"/>
<path d="M40.3331 53.7708C40.3331 53.7708 36.037 47.9375 34.4998 47.9375C32.9626 47.9375 28.6665 53.7708 28.6665 53.7708M34.4998 48.6667V61.0625" stroke="#141B34" stroke-width="1.5" stroke-linecap="round" stroke-linejoin="round"/>
</svg>
